# xmcd
#
# Track frame offsets: 
#        150
#        21390
#        32425
#        46465
#        62162
#        81160
#        91427
#        101625
#        111365
#        122667
#        137260
#        155117
#        164555
#        175560
#        186102
#        205367
#        215337
#        228642
#        247285
#        260487
#        272097
#        284190
#        299722
#        311522
#        322555
#        331635
#
# Disc length: 4597 seconds
#
# Revision: 20
# Processed by: cddbd v1.5.2PL0 Copyright (c) Steve Scherf et al.
# Submitted via: ExactAudioCopy v1.0b3
#
DISCID=8911f31a
DTITLE=Louis Prima - Capitol Collector's Series
DYEAR=1991
DGENRE=Classic Pop
TTITLE0=Just a Gigolo - I Ain't Got Nobody (Medley)
TTITLE1=Oh Marie
TTITLE2=Buona Sera
TTITLE3=Jump, Jive, an' Wail
TTITLE4=Basin Street Blues - When it's Sleepy Time Down South (Medley)
TTITLE5=The Lip (featuring Keely Smith)
TTITLE6=Whistle Stop
TTITLE7=5 Months, 2 Weeks, 2 Days
TTITLE8=Banana Split for My Baby
TTITLE9=There'll Be No Next Time (featuring Sam Butera)
TTITLE10=When You're Smiling - The Sheik of Araby (Medley)
TTITLE11=Baby, Won't You Please Come Home (with Keely Smith)
TTITLE12=I've Got the World On a String
TTITLE13=Pennies from Heaven
TTITLE14=Angelina - Zooma Zooma (Medley)
TTITLE15=Beep! Beep!
TTITLE16=Embraceable You - I Got it Bad and That Ain't Good (Medley) (
TTITLE16=with Keely Smith)
TTITLE17=Sing, Sing, Sing
TTITLE18=That Old Black Magic (with Keely Smith)
TTITLE19=The Music Goes 'Round and Around
TTITLE20=Hey, Boy! Hey, Girl! (with Keely Smith)
TTITLE21=Lazy River
TTITLE22=I've Got You Under My Skin (with Keely Smith)
TTITLE23=You're Just in Love
TTITLE24=Twist All Night
TTITLE25=St. Louis Blues
EXTD=LABEL =Capitol Records, Inc.\nID =CDP7940722\nUPC =07777-94072
EXTD=24\nCOPYRIGHT =1991\n*****\n YEAR: 1956
EXTT0=
EXTT1=Contrary to what you might think, this one swings like a mo' fo'
EXTT1=!
EXTT2=
EXTT3=This is the version of the song which is featured in the Gap Swi
EXTT3=ngs commercial,\nThe original!
EXTT4=
EXTT5=
EXTT6=
EXTT7=
EXTT8=
EXTT9=
EXTT10=
EXTT11=
EXTT12=
EXTT13=
EXTT14=
EXTT15=
EXTT16=
EXTT17=
EXTT18=
EXTT19=
EXTT20=
EXTT21=
EXTT22=
EXTT23=
EXTT24=
EXTT25=
PLAYORDER=
